<svg width="64" height="64" viewBox="0 0 64 64" fill="none" xmlns="http://www.w3.org/2000/svg">
<path d="M0 22.8C0 14.8193 0 10.8289 1.55316 7.78064C2.91935 5.09933 5.09933 2.91935 7.78064 1.55316C10.8289 0 14.8193 0 22.8 0H41.2C49.1807 0 53.1711 0 56.2194 1.55316C58.9007 2.91935 61.0806 5.09933 62.4468 7.78064C64 10.8289 64 14.8193 64 22.8V41.2C64 49.1807 64 53.1711 62.4468 56.2194C61.0806 58.9007 58.9007 61.0806 56.2194 62.4468C53.1711 64 49.1807 64 41.2 64H22.8C14.8193 64 10.8289 64 7.78064 62.4468C5.09933 61.0806 2.91935 58.9007 1.55316 56.2194C0 53.1711 0 49.1807 0 41.2V22.8Z" fill="#08C284"/>
<path d="M28.2663 31.0217C27.7263 31.5618 27.7263 32.4374 28.2663 32.9775L31.0232 35.7344C31.5633 36.2744 32.4389 36.2744 32.979 35.7344L35.7359 32.9775C36.2759 32.4374 36.2759 31.5618 35.7359 31.0217L32.979 28.2648C32.4389 27.7248 31.5633 27.7248 31.0232 28.2648L28.2663 31.0217Z" fill="white"/>
<path fill-rule="evenodd" clip-rule="evenodd" d="M42.4309 17.3977C42.9931 18.2746 43.4626 19.1843 43.8422 20.1153C36.3538 11.6523 23.6119 9.66983 13.8012 15.9585C12.2518 16.9517 11.8008 19.0129 12.794 20.5623C13.7872 22.1117 15.8484 22.5626 17.3978 21.5695C18.2747 21.0073 19.1844 20.5378 20.1154 20.1582C11.6524 27.6466 9.66995 40.3885 15.9587 50.1992C16.9518 51.7486 19.013 52.1995 20.5624 51.2064C22.1118 50.2132 22.5628 48.152 21.5696 46.6026C21.0075 45.7257 20.5379 44.816 20.1583 43.8849C27.6338 52.3334 40.3446 54.3236 50.1484 48.0743C51.1011 47.4865 51.7353 46.4325 51.7334 45.231C51.7305 43.3906 50.2362 41.901 48.3958 41.9039C47.719 41.905 47.0897 42.1077 46.5646 42.4552C45.6994 43.0065 44.8026 43.468 43.8851 43.8421C52.3481 36.3536 54.3306 23.6118 48.0419 13.801C47.0487 12.2516 44.9875 11.8007 43.4381 12.7939C41.8887 13.7871 41.4378 15.8483 42.4309 17.3977ZM26.5957 23.5899C21.9552 26.5718 20.6064 32.75 23.5839 37.3951C26.5634 42.0433 32.7469 43.396 37.3952 40.4165C42.0434 37.437 43.3962 31.2534 40.4166 26.6052L40.4155 26.6035C37.4356 21.9566 31.253 20.6046 26.6053 23.5838L26.5957 23.5899Z" fill="white"/>
</svg>
