<svg width="16" height="16" viewBox="0 0 16 16" fill="none" xmlns="http://www.w3.org/2000/svg">
<path d="M8 0C3.58171 0 0 3.58171 0 8C0 12.4183 3.58171 16 8 16C12.4183 16 16 12.4183 16 8C16 3.58171 12.4183 0 8 0ZM8.656 5.68171L8.96686 5.31886L10.0451 4.06171H11.0206L8.95771 6.46343C8.95771 6.46343 8.728 6.19143 8.64971 6.10057C8.54686 5.97829 8.55029 5.79714 8.656 5.68171ZM6.06457 4.06114C6.06457 4.06114 7.792 6.12857 8.41714 6.76971C8.51657 6.86971 8.49886 7.00114 8.408 7.10743C8.076 7.49829 8.06686 7.50457 8.06686 7.50457L5.09486 4.06114H6.06457ZM7.46857 10.2663L7.15771 10.6291L6.07943 11.8863H5.104L7.16686 9.48457C7.16686 9.48457 7.39657 9.75657 7.47486 9.84743C7.57771 9.96914 7.57486 10.1509 7.46857 10.2663ZM7.508 8.15543C6.66857 9.128 4.30686 11.8869 4.30686 11.8869H3.25886L6.47257 8.16514C6.57543 8.04629 6.57543 7.868 6.47257 7.75257L3.28343 4.06228H4.292L7.49943 7.784C7.58057 7.89257 7.59543 8.052 7.508 8.15543ZM10.0451 11.8863L7.86743 9.34686L7.75886 9.20914C7.656 9.09028 7.65943 8.90571 7.76514 8.78971L11.824 4.06114H12.8297L8.74628 8.72743C8.64057 8.84343 8.63771 9.02743 8.74 9.14628L11.0954 11.8863H10.0451ZM11.8994 11.8863C11.8994 11.8863 10.1417 9.83429 9.55543 9.14971C9.48914 9.07143 9.46457 8.96514 9.48914 8.868C9.50743 8.81486 9.54628 8.75543 9.58286 8.71486L9.85486 8.41486L12.8537 11.8863H11.8994Z" fill="black"/>
</svg>
