<svg width="32" height="32" viewBox="0 0 260 260" fill="white" xmlns="http://www.w3.org/2000/svg"><path d="M0 92.48C0 60.109 0 43.9234 6.29982 31.5593C11.8413 20.6836 20.6836 11.8413 31.5593 6.29982C43.9234 0 60.109 0 92.48 0H167.52C199.891 0 216.077 0 228.441 6.29982C239.316 11.8413 248.159 20.6836 253.7 31.5593C260 43.9234 260 60.109 260 92.48V167.52C260 199.891 260 216.077 253.7 228.441C248.159 239.316 239.316 248.159 228.441 253.7C216.077 260 199.891 260 167.52 260H92.48C60.109 260 43.9234 260 31.5593 253.7C20.6836 248.159 11.8413 239.316 6.29982 228.441C0 216.077 0 199.891 0 167.52V92.48Z" fill="url(#paint0_linear_46_3)"></path><g filter="url(#filter0_i_46_3)"><path d="M113.229 121.598C118.182 119.568 120.246 122.917 117.19 126.842C109.334 136.932 97.1707 158.238 112.514 167.739C119.375 171.988 129.627 168.872 138.237 166.01L139.618 165.549C141.893 164.789 144.029 164.078 145.925 163.566C158.101 160.277 170.948 157.144 183.551 159.81C198.029 162.871 207.847 177.388 205.934 192.145C204.035 206.788 190.974 217.337 176.39 217.337H87.4081C70.1347 217.68 58.1514 205.142 56.8784 190.3C56.6589 187.746 56.7365 185.133 57.1327 182.517C59.7199 165.501 69.3736 151.677 81.2793 140.028C88.9617 132.512 102.802 124.781 113.022 121.661C113.09 121.641 113.161 121.625 113.229 121.598ZM172.592 42.1553C189.865 41.8121 201.85 54.3502 203.121 69.1924C203.341 71.7459 203.265 74.3597 202.867 76.9752C200.281 93.9907 190.626 107.815 178.72 119.464C171.038 126.98 157.199 134.711 146.977 137.831C146.91 137.851 146.839 137.868 146.771 137.894C141.818 139.924 139.754 136.575 142.81 132.65C150.666 122.56 162.829 101.254 147.487 91.7537C138.4 86.1259 123.366 93.4164 114.077 95.9264C101.899 99.215 89.0535 102.348 76.4494 99.6821C61.9714 96.6213 52.1526 82.1039 54.0662 67.3472C55.9649 52.7042 69.0263 42.1553 83.61 42.1553H172.592Z" fill="url(#paint1_linear_46_3)"></path></g><path d="M31.5593 253.7L30.6514 255.482L31.5593 253.7ZM6.29982 228.441L4.51781 229.349L6.29982 228.441ZM253.7 228.441L251.918 227.533L253.7 228.441ZM228.441 253.7L227.533 251.918L228.441 253.7ZM228.441 6.29982L229.349 4.51781L228.441 6.29982ZM31.5593 6.29982L30.6514 4.51781L31.5593 6.29982ZM6.29982 31.5593L4.51781 30.6514L6.29982 31.5593ZM92.48 2H167.52V-2H92.48V2ZM258 92.48V167.52H262V92.48H258ZM167.52 258H92.48V262H167.52V258ZM2 167.52V92.48H-2V167.52H2ZM92.48 258C76.2615 258 64.2179 257.998 54.6799 257.219C45.1653 256.442 38.3204 254.9 32.4673 251.918L30.6514 255.482C37.1624 258.8 44.5923 260.408 54.3542 261.206C64.0928 262.002 76.3275 262 92.48 262V258ZM-2 167.52C-2 183.673 -2.00156 195.907 -1.20588 205.646C-0.408297 215.408 1.2003 222.838 4.51781 229.349L8.08184 227.533C5.09953 221.68 3.55821 214.835 2.78084 205.32C2.00156 195.782 2 183.739 2 167.52H-2ZM32.4673 251.918C21.9679 246.568 13.4316 238.032 8.08184 227.533L4.51781 229.349C10.251 240.601 19.3993 249.749 30.6514 255.482L32.4673 251.918ZM258 167.52C258 183.739 257.998 195.782 257.219 205.32C256.442 214.835 254.9 221.68 251.918 227.533L255.482 229.349C258.8 222.838 260.408 215.408 261.206 205.646C262.002 195.907 262 183.673 262 167.52H258ZM167.52 262C183.673 262 195.907 262.002 205.646 261.206C215.408 260.408 222.838 258.8 229.349 255.482L227.533 251.918C221.68 254.9 214.835 256.442 205.32 257.219C195.782 257.998 183.739 258 167.52 258V262ZM251.918 227.533C246.568 238.032 238.032 246.568 227.533 251.918L229.349 255.482C240.601 249.749 249.749 240.601 255.482 229.349L251.918 227.533ZM167.52 2C183.739 2 195.782 2.00156 205.32 2.78084C214.835 3.55821 221.68 5.09953 227.533 8.08184L229.349 4.51781C222.838 1.2003 215.408 -0.408297 205.646 -1.20588C195.907 -2.00156 183.673 -2 167.52 -2V2ZM262 92.48C262 76.3275 262.002 64.0928 261.206 54.3542C260.408 44.5923 258.8 37.1624 255.482 30.6514L251.918 32.4673C254.9 38.3204 256.442 45.1653 257.219 54.6799C257.998 64.2179 258 76.2615 258 92.48H262ZM227.533 8.08184C238.032 13.4316 246.568 21.9679 251.918 32.4673L255.482 30.6514C249.749 19.3993 240.601 10.251 229.349 4.51781L227.533 8.08184ZM92.48 -2C76.3275 -2 64.0928 -2.00156 54.3542 -1.20588C44.5923 -0.408297 37.1624 1.2003 30.6514 4.51781L32.4673 8.08184C38.3204 5.09953 45.1653 3.55821 54.6799 2.78084C64.2179 2.00156 76.2615 2 92.48 2V-2ZM2 92.48C2 76.2615 2.00156 64.2179 2.78084 54.6799C3.55821 45.1653 5.09953 38.3204 8.08184 32.4673L4.51781 30.6514C1.2003 37.1624 -0.408297 44.5923 -1.20588 54.3542C-2.00156 64.0928 -2 76.3275 -2 92.48H2ZM30.6514 4.51781C19.3993 10.251 10.251 19.3993 4.51781 30.6514L8.08184 32.4673C13.4316 21.9679 21.9679 13.4316 32.4673 8.08184L30.6514 4.51781Z" fill="url(#paint2_linear_46_3)"></path><defs><filter id="filter0_i_46_3" x="53.8281" y="42.1484" width="152.344" height="176.195" filterUnits="userSpaceOnUse" color-interpolation-filters="sRGB"><feFlood flood-opacity="0" result="BackgroundImageFix"></feFlood><feBlend mode="normal" in="SourceGraphic" in2="BackgroundImageFix" result="shape"></feBlend><feColorMatrix in="SourceAlpha" type="matrix" values="0 0 0 0 0 0 0 0 0 0 0 0 0 0 0 0 0 0 127 0" result="hardAlpha"></feColorMatrix><feOffset dy="1"></feOffset><feGaussianBlur stdDeviation="1"></feGaussianBlur><feComposite in2="hardAlpha" operator="arithmetic" k2="-1" k3="1"></feComposite><feColorMatrix type="matrix" values="0 0 0 0 0.262745 0 0 0 0 0.811765 0 0 0 0 0.780392 0 0 0 0.677133 0"></feColorMatrix><feBlend mode="normal" in2="shape" result="effect1_innerShadow_46_3"></feBlend></filter><linearGradient id="paint0_linear_46_3" x1="130" y1="0" x2="130" y2="254.875" gradientUnits="userSpaceOnUse"><stop stop-color="white"></stop><stop offset="0.999087" stop-color="#E6F7F7"></stop></linearGradient><linearGradient id="paint1_linear_46_3" x1="63.8983" y1="48.4746" x2="203.814" y2="213.729" gradientUnits="userSpaceOnUse"><stop stop-color="#4FF4BA"></stop><stop offset="1" stop-color="#43CFC7" stop-opacity="0.677133"></stop></linearGradient><linearGradient id="paint2_linear_46_3" x1="130" y1="0" x2="130" y2="260" gradientUnits="userSpaceOnUse"><stop stop-color="#E7F8F8"></stop><stop offset="1" stop-color="#E6F8F8"></stop></linearGradient></defs></svg>